# Captain Clark — blocky placeholder (~2 m tall, origin at feet, faces -Z)
o captain_clark
v -0.0350 0.0000 0.0750
v -0.0350 0.0000 -0.0750
v -0.0350 0.9000 -0.0750
v -0.0350 0.9000 0.0750
v -0.1850 0.0000 -0.0750
v -0.1850 0.0000 0.0750
v -0.1850 0.9000 0.0750
v -0.1850 0.9000 -0.0750
v -0.1850 0.9000 0.0750
v -0.0350 0.9000 0.0750
v -0.0350 0.9000 -0.0750
v -0.1850 0.9000 -0.0750
v -0.1850 0.0000 -0.0750
v -0.0350 0.0000 -0.0750
v -0.0350 0.0000 0.0750
v -0.1850 0.0000 0.0750
v -0.1850 0.0000 0.0750
v -0.0350 0.0000 0.0750
v -0.0350 0.9000 0.0750
v -0.1850 0.9000 0.0750
v -0.0350 0.0000 -0.0750
v -0.1850 0.0000 -0.0750
v -0.1850 0.9000 -0.0750
v -0.0350 0.9000 -0.0750
v 0.1850 0.0000 0.0750
v 0.1850 0.0000 -0.0750
v 0.1850 0.9000 -0.0750
v 0.1850 0.9000 0.0750
v 0.0350 0.0000 -0.0750
v 0.0350 0.0000 0.0750
v 0.0350 0.9000 0.0750
v 0.0350 0.9000 -0.0750
v 0.0350 0.9000 0.0750
v 0.1850 0.9000 0.0750
v 0.1850 0.9000 -0.0750
v 0.0350 0.9000 -0.0750
v 0.0350 0.0000 -0.0750
v 0.1850 0.0000 -0.0750
v 0.1850 0.0000 0.0750
v 0.0350 0.0000 0.0750
v 0.0350 0.0000 0.0750
v 0.1850 0.0000 0.0750
v 0.1850 0.9000 0.0750
v 0.0350 0.9000 0.0750
v 0.1850 0.0000 -0.0750
v 0.0350 0.0000 -0.0750
v 0.0350 0.9000 -0.0750
v 0.1850 0.9000 -0.0750
v 0.1800 0.9000 0.1000
v 0.1800 0.9000 -0.1000
v 0.1800 1.0400 -0.1000
v 0.1800 1.0400 0.1000
v -0.1800 0.9000 -0.1000
v -0.1800 0.9000 0.1000
v -0.1800 1.0400 0.1000
v -0.1800 1.0400 -0.1000
v -0.1800 1.0400 0.1000
v 0.1800 1.0400 0.1000
v 0.1800 1.0400 -0.1000
v -0.1800 1.0400 -0.1000
v -0.1800 0.9000 -0.1000
v 0.1800 0.9000 -0.1000
v 0.1800 0.9000 0.1000
v -0.1800 0.9000 0.1000
v -0.1800 0.9000 0.1000
v 0.1800 0.9000 0.1000
v 0.1800 1.0400 0.1000
v -0.1800 1.0400 0.1000
v 0.1800 0.9000 -0.1000
v -0.1800 0.9000 -0.1000
v -0.1800 1.0400 -0.1000
v 0.1800 1.0400 -0.1000
v 0.2100 1.0400 0.1100
v 0.2100 1.0400 -0.1100
v 0.2100 1.6200 -0.1100
v 0.2100 1.6200 0.1100
v -0.2100 1.0400 -0.1100
v -0.2100 1.0400 0.1100
v -0.2100 1.6200 0.1100
v -0.2100 1.6200 -0.1100
v -0.2100 1.6200 0.1100
v 0.2100 1.6200 0.1100
v 0.2100 1.6200 -0.1100
v -0.2100 1.6200 -0.1100
v -0.2100 1.0400 -0.1100
v 0.2100 1.0400 -0.1100
v 0.2100 1.0400 0.1100
v -0.2100 1.0400 0.1100
v -0.2100 1.0400 0.1100
v 0.2100 1.0400 0.1100
v 0.2100 1.6200 0.1100
v -0.2100 1.6200 0.1100
v 0.2100 1.0400 -0.1100
v -0.2100 1.0400 -0.1100
v -0.2100 1.6200 -0.1100
v 0.2100 1.6200 -0.1100
v -0.2250 0.8100 0.0550
v -0.2250 0.8100 -0.0550
v -0.2250 1.5900 -0.0550
v -0.2250 1.5900 0.0550
v -0.3350 0.8100 -0.0550
v -0.3350 0.8100 0.0550
v -0.3350 1.5900 0.0550
v -0.3350 1.5900 -0.0550
v -0.3350 1.5900 0.0550
v -0.2250 1.5900 0.0550
v -0.2250 1.5900 -0.0550
v -0.3350 1.5900 -0.0550
v -0.3350 0.8100 -0.0550
v -0.2250 0.8100 -0.0550
v -0.2250 0.8100 0.0550
v -0.3350 0.8100 0.0550
v -0.3350 0.8100 0.0550
v -0.2250 0.8100 0.0550
v -0.2250 1.5900 0.0550
v -0.3350 1.5900 0.0550
v -0.2250 0.8100 -0.0550
v -0.3350 0.8100 -0.0550
v -0.3350 1.5900 -0.0550
v -0.2250 1.5900 -0.0550
v 0.3350 0.8100 0.0550
v 0.3350 0.8100 -0.0550
v 0.3350 1.5900 -0.0550
v 0.3350 1.5900 0.0550
v 0.2250 0.8100 -0.0550
v 0.2250 0.8100 0.0550
v 0.2250 1.5900 0.0550
v 0.2250 1.5900 -0.0550
v 0.2250 1.5900 0.0550
v 0.3350 1.5900 0.0550
v 0.3350 1.5900 -0.0550
v 0.2250 1.5900 -0.0550
v 0.2250 0.8100 -0.0550
v 0.3350 0.8100 -0.0550
v 0.3350 0.8100 0.0550
v 0.2250 0.8100 0.0550
v 0.2250 0.8100 0.0550
v 0.3350 0.8100 0.0550
v 0.3350 1.5900 0.0550
v 0.2250 1.5900 0.0550
v 0.3350 0.8100 -0.0550
v 0.2250 0.8100 -0.0550
v 0.2250 1.5900 -0.0550
v 0.3350 1.5900 -0.0550
v 0.1200 1.6200 0.1300
v 0.1200 1.6200 -0.1300
v 0.1200 1.9000 -0.1300
v 0.1200 1.9000 0.1300
v -0.1200 1.6200 -0.1300
v -0.1200 1.6200 0.1300
v -0.1200 1.9000 0.1300
v -0.1200 1.9000 -0.1300
v -0.1200 1.9000 0.1300
v 0.1200 1.9000 0.1300
v 0.1200 1.9000 -0.1300
v -0.1200 1.9000 -0.1300
v -0.1200 1.6200 -0.1300
v 0.1200 1.6200 -0.1300
v 0.1200 1.6200 0.1300
v -0.1200 1.6200 0.1300
v -0.1200 1.6200 0.1300
v 0.1200 1.6200 0.1300
v 0.1200 1.9000 0.1300
v -0.1200 1.9000 0.1300
v 0.1200 1.6200 -0.1300
v -0.1200 1.6200 -0.1300
v -0.1200 1.9000 -0.1300
v 0.1200 1.9000 -0.1300
v 0.1500 1.9050 0.1500
v 0.1500 1.9050 -0.2100
v 0.1500 1.9550 -0.2100
v 0.1500 1.9550 0.1500
v -0.1500 1.9050 -0.2100
v -0.1500 1.9050 0.1500
v -0.1500 1.9550 0.1500
v -0.1500 1.9550 -0.2100
v -0.1500 1.9550 0.1500
v 0.1500 1.9550 0.1500
v 0.1500 1.9550 -0.2100
v -0.1500 1.9550 -0.2100
v -0.1500 1.9050 -0.2100
v 0.1500 1.9050 -0.2100
v 0.1500 1.9050 0.1500
v -0.1500 1.9050 0.1500
v -0.1500 1.9050 0.1500
v 0.1500 1.9050 0.1500
v 0.1500 1.9550 0.1500
v -0.1500 1.9550 0.1500
v 0.1500 1.9050 -0.2100
v -0.1500 1.9050 -0.2100
v -0.1500 1.9550 -0.2100
v 0.1500 1.9550 -0.2100
v 0.1300 1.9450 0.1500
v 0.1300 1.9450 -0.1100
v 0.1300 2.0350 -0.1100
v 0.1300 2.0350 0.1500
v -0.1300 1.9450 -0.1100
v -0.1300 1.9450 0.1500
v -0.1300 2.0350 0.1500
v -0.1300 2.0350 -0.1100
v -0.1300 2.0350 0.1500
v 0.1300 2.0350 0.1500
v 0.1300 2.0350 -0.1100
v -0.1300 2.0350 -0.1100
v -0.1300 1.9450 -0.1100
v 0.1300 1.9450 -0.1100
v 0.1300 1.9450 0.1500
v -0.1300 1.9450 0.1500
v -0.1300 1.9450 0.1500
v 0.1300 1.9450 0.1500
v 0.1300 2.0350 0.1500
v -0.1300 2.0350 0.1500
v 0.1300 1.9450 -0.1100
v -0.1300 1.9450 -0.1100
v -0.1300 2.0350 -0.1100
v 0.1300 2.0350 -0.1100
vt 0 0
vt 1 0
vt 1 1
vt 0 1
vn 1 0 0
vn -1 0 0
vn 0 1 0
vn 0 -1 0
vn 0 0 1
vn 0 0 -1
f 1/1/1 2/2/1 3/3/1
f 1/1/1 3/3/1 4/4/1
f 5/1/2 6/2/2 7/3/2
f 5/1/2 7/3/2 8/4/2
f 9/1/3 10/2/3 11/3/3
f 9/1/3 11/3/3 12/4/3
f 13/1/4 14/2/4 15/3/4
f 13/1/4 15/3/4 16/4/4
f 17/1/5 18/2/5 19/3/5
f 17/1/5 19/3/5 20/4/5
f 21/1/6 22/2/6 23/3/6
f 21/1/6 23/3/6 24/4/6
f 25/1/1 26/2/1 27/3/1
f 25/1/1 27/3/1 28/4/1
f 29/1/2 30/2/2 31/3/2
f 29/1/2 31/3/2 32/4/2
f 33/1/3 34/2/3 35/3/3
f 33/1/3 35/3/3 36/4/3
f 37/1/4 38/2/4 39/3/4
f 37/1/4 39/3/4 40/4/4
f 41/1/5 42/2/5 43/3/5
f 41/1/5 43/3/5 44/4/5
f 45/1/6 46/2/6 47/3/6
f 45/1/6 47/3/6 48/4/6
f 49/1/1 50/2/1 51/3/1
f 49/1/1 51/3/1 52/4/1
f 53/1/2 54/2/2 55/3/2
f 53/1/2 55/3/2 56/4/2
f 57/1/3 58/2/3 59/3/3
f 57/1/3 59/3/3 60/4/3
f 61/1/4 62/2/4 63/3/4
f 61/1/4 63/3/4 64/4/4
f 65/1/5 66/2/5 67/3/5
f 65/1/5 67/3/5 68/4/5
f 69/1/6 70/2/6 71/3/6
f 69/1/6 71/3/6 72/4/6
f 73/1/1 74/2/1 75/3/1
f 73/1/1 75/3/1 76/4/1
f 77/1/2 78/2/2 79/3/2
f 77/1/2 79/3/2 80/4/2
f 81/1/3 82/2/3 83/3/3
f 81/1/3 83/3/3 84/4/3
f 85/1/4 86/2/4 87/3/4
f 85/1/4 87/3/4 88/4/4
f 89/1/5 90/2/5 91/3/5
f 89/1/5 91/3/5 92/4/5
f 93/1/6 94/2/6 95/3/6
f 93/1/6 95/3/6 96/4/6
f 97/1/1 98/2/1 99/3/1
f 97/1/1 99/3/1 100/4/1
f 101/1/2 102/2/2 103/3/2
f 101/1/2 103/3/2 104/4/2
f 105/1/3 106/2/3 107/3/3
f 105/1/3 107/3/3 108/4/3
f 109/1/4 110/2/4 111/3/4
f 109/1/4 111/3/4 112/4/4
f 113/1/5 114/2/5 115/3/5
f 113/1/5 115/3/5 116/4/5
f 117/1/6 118/2/6 119/3/6
f 117/1/6 119/3/6 120/4/6
f 121/1/1 122/2/1 123/3/1
f 121/1/1 123/3/1 124/4/1
f 125/1/2 126/2/2 127/3/2
f 125/1/2 127/3/2 128/4/2
f 129/1/3 130/2/3 131/3/3
f 129/1/3 131/3/3 132/4/3
f 133/1/4 134/2/4 135/3/4
f 133/1/4 135/3/4 136/4/4
f 137/1/5 138/2/5 139/3/5
f 137/1/5 139/3/5 140/4/5
f 141/1/6 142/2/6 143/3/6
f 141/1/6 143/3/6 144/4/6
f 145/1/1 146/2/1 147/3/1
f 145/1/1 147/3/1 148/4/1
f 149/1/2 150/2/2 151/3/2
f 149/1/2 151/3/2 152/4/2
f 153/1/3 154/2/3 155/3/3
f 153/1/3 155/3/3 156/4/3
f 157/1/4 158/2/4 159/3/4
f 157/1/4 159/3/4 160/4/4
f 161/1/5 162/2/5 163/3/5
f 161/1/5 163/3/5 164/4/5
f 165/1/6 166/2/6 167/3/6
f 165/1/6 167/3/6 168/4/6
f 169/1/1 170/2/1 171/3/1
f 169/1/1 171/3/1 172/4/1
f 173/1/2 174/2/2 175/3/2
f 173/1/2 175/3/2 176/4/2
f 177/1/3 178/2/3 179/3/3
f 177/1/3 179/3/3 180/4/3
f 181/1/4 182/2/4 183/3/4
f 181/1/4 183/3/4 184/4/4
f 185/1/5 186/2/5 187/3/5
f 185/1/5 187/3/5 188/4/5
f 189/1/6 190/2/6 191/3/6
f 189/1/6 191/3/6 192/4/6
f 193/1/1 194/2/1 195/3/1
f 193/1/1 195/3/1 196/4/1
f 197/1/2 198/2/2 199/3/2
f 197/1/2 199/3/2 200/4/2
f 201/1/3 202/2/3 203/3/3
f 201/1/3 203/3/3 204/4/3
f 205/1/4 206/2/4 207/3/4
f 205/1/4 207/3/4 208/4/4
f 209/1/5 210/2/5 211/3/5
f 209/1/5 211/3/5 212/4/5
f 213/1/6 214/2/6 215/3/6
f 213/1/6 215/3/6 216/4/6
